<?xml version="1.0" encoding="UTF-8" standalone="no"?>
<!DOCTYPE svg PUBLIC "-//W3C//DTD SVG 1.1//EN" "http://www.w3.org/Graphics/SVG/1.1/DTD/svg11.dtd">
<svg width="100%" height="100%" viewBox="0 0 670 670" version="1.1" xmlns="http://www.w3.org/2000/svg" xmlns:xlink="http://www.w3.org/1999/xlink" xml:space="preserve" xmlns:serif="http://www.serif.com/" style="fill-rule:evenodd;clip-rule:evenodd;stroke-linejoin:round;stroke-miterlimit:1.41421;">
    <g transform="matrix(1,0,0,1,-2817.82,-250.501)">
        <g transform="matrix(1,0,0,1,-1529.18,1540.44)">
            <g transform="matrix(1,0,0,1,2526.37,0)">
                <circle cx="2155.2" cy="-955.361" r="334.578" style="fill:white;"/>
            </g>
            <g transform="matrix(1,0,0,1,-27.7642,2.27374e-13)">
                <g transform="matrix(0.413415,0,0,0.413415,4593.06,-1078.37)">
                    <g transform="matrix(1,0,0,1,-230,-230)">
                        <g>
                            <path d="M230,80C222.712,80 215.885,78.041 210,74.635L210,121.819C216.486,120.628 223.169,120 230,120C236.831,120 243.514,120.628 250,121.819L250,74.635C244.115,78.041 237.288,80 230,80Z" style="fill:rgb(19,152,173);fill-rule:nonzero;"/>
                            <path d="M123.934,123.934C118.78,129.088 112.568,132.53 105.998,134.283L139.362,167.647C143.106,162.218 147.388,157.048 152.218,152.218C157.048,147.388 162.218,143.106 167.647,139.362L134.283,105.998C132.53,112.568 129.088,118.78 123.934,123.934Z" style="fill:rgb(19,152,173);fill-rule:nonzero;"/>
                            <circle cx="95.65" cy="95.65" r="40" style="fill:rgb(63,195,216);"/>
                            <path d="M80,230C80,237.288 78.041,244.115 74.635,250L121.819,250C120.628,243.514 120,236.831 120,230C120,223.169 120.628,216.486 121.819,210L74.635,210C78.041,215.885 80,222.712 80,230Z" style="fill:rgb(19,152,173);fill-rule:nonzero;"/>
                            <circle cx="40" cy="230" r="40" style="fill:rgb(63,195,216);"/>
                            <path d="M123.934,336.066C129.088,341.22 132.53,347.432 134.283,354.002L167.647,320.638C162.218,316.894 157.048,312.612 152.218,307.782C147.388,302.952 143.106,297.782 139.362,292.353L105.998,325.717C112.568,327.47 118.78,330.912 123.934,336.066Z" style="fill:rgb(19,152,173);fill-rule:nonzero;"/>
                            <circle cx="95.65" cy="364.35" r="40" style="fill:rgb(63,195,216);"/>
                            <path d="M230,380C237.288,380 244.115,381.959 250,385.365L250,338.181C243.514,339.372 236.831,340 230,340C223.169,340 216.486,339.372 210,338.181L210,385.365C215.885,381.959 222.712,380 230,380Z" style="fill:rgb(11,56,156);fill-rule:nonzero;"/>
                            <path d="M336.066,336.066C341.22,330.912 347.432,327.47 354.002,325.717L320.638,292.353C316.894,297.782 312.612,302.952 307.782,307.782C302.952,312.612 297.782,316.894 292.353,320.638L325.717,354.002C327.47,347.432 330.912,341.22 336.066,336.066Z" style="fill:rgb(11,56,156);fill-rule:nonzero;"/>
                            <circle cx="364.35" cy="364.35" r="40" style="fill:rgb(19,152,173);"/>
                            <path d="M380,230C380,222.712 381.959,215.885 385.365,210L338.181,210C339.372,216.486 340,223.169 340,230C340,236.831 339.372,243.514 338.181,250L385.365,250C381.959,244.115 380,237.288 380,230Z" style="fill:rgb(11,56,156);fill-rule:nonzero;"/>
                            <circle cx="420" cy="230" r="40" style="fill:rgb(19,152,173);"/>
                            <path d="M336.066,123.934C330.912,118.78 327.47,112.568 325.717,105.998L292.353,139.362C297.782,143.106 302.952,147.388 307.782,152.218C312.612,157.048 316.894,162.218 320.638,167.647L354.002,134.283C347.432,132.53 341.22,129.088 336.066,123.934Z" style="fill:rgb(11,56,156);fill-rule:nonzero;"/>
                            <circle cx="364.35" cy="95.65" r="40" style="fill:rgb(19,152,173);"/>
                            <path d="M190,230C190,207.909 207.909,190 230,190L230,120C169.249,120 120,169.249 120,230C120,290.751 169.249,340 230,340L230,270C207.909,270 190,252.091 190,230Z" style="fill:rgb(239,158,143);fill-rule:nonzero;"/>
                            <path d="M230,120L230,190C252.091,190 270,207.909 270,230C270,252.091 252.091,270 230,270L230,340C290.751,340 340,290.751 340,230C340,169.249 290.751,120 230,120Z" style="fill:rgb(245,123,113);fill-rule:nonzero;"/>
                            <path d="M190,40C190,62.091 207.909,80 230,80L230,0C207.909,0 190,17.909 190,40Z" style="fill:rgb(63,195,216);fill-rule:nonzero;"/>
                            <path d="M270,40C270,17.909 252.091,0 230,0L230,80C252.091,80 270,62.091 270,40Z" style="fill:rgb(19,152,173);fill-rule:nonzero;"/>
                            <path d="M270,420C270,397.909 252.091,380 230,380L230,460C252.091,460 270,442.091 270,420Z" style="fill:rgb(19,152,173);fill-rule:nonzero;"/>
                            <path d="M190,420C190,442.091 207.909,460 230,460L230,380C207.909,380 190,397.909 190,420Z" style="fill:rgb(63,195,216);fill-rule:nonzero;"/>
                            <path d="M270,230C270,207.909 252.091,190 230,190L230,270C252.091,270 270,252.091 270,230Z" style="fill:rgb(239,140,167);fill-rule:nonzero;"/>
                            <path d="M190,230C190,252.091 207.909,270 230,270L230,190C207.909,190 190,207.909 190,230Z" style="fill:white;fill-rule:nonzero;"/>
                        </g>
                    </g>
                </g>
                <g transform="matrix(0.575869,0.143512,-0.143512,0.575869,4828.02,-932.231)">
                    <g transform="matrix(1,0,0,1,-230,-230)">
                        <g>
                            <path d="M230,80C222.712,80 215.885,78.041 210,74.635L210,121.819C216.486,120.628 223.169,120 230,120C236.831,120 243.514,120.628 250,121.819L250,74.635C244.115,78.041 237.288,80 230,80Z" style="fill:rgb(19,152,173);fill-rule:nonzero;"/>
                            <path d="M123.934,123.934C118.78,129.088 112.568,132.53 105.998,134.283L139.362,167.647C143.106,162.218 147.388,157.048 152.218,152.218C157.048,147.388 162.218,143.106 167.647,139.362L134.283,105.998C132.53,112.568 129.088,118.78 123.934,123.934Z" style="fill:rgb(19,152,173);fill-rule:nonzero;"/>
                            <circle cx="95.65" cy="95.65" r="40" style="fill:rgb(63,195,216);"/>
                            <path d="M80,230C80,237.288 78.041,244.115 74.635,250L121.819,250C120.628,243.514 120,236.831 120,230C120,223.169 120.628,216.486 121.819,210L74.635,210C78.041,215.885 80,222.712 80,230Z" style="fill:rgb(19,152,173);fill-rule:nonzero;"/>
                            <circle cx="40" cy="230" r="40" style="fill:rgb(63,195,216);"/>
                            <path d="M123.934,336.066C129.088,341.22 132.53,347.432 134.283,354.002L167.647,320.638C162.218,316.894 157.048,312.612 152.218,307.782C147.388,302.952 143.106,297.782 139.362,292.353L105.998,325.717C112.568,327.47 118.78,330.912 123.934,336.066Z" style="fill:rgb(19,152,173);fill-rule:nonzero;"/>
                            <circle cx="95.65" cy="364.35" r="40" style="fill:rgb(63,195,216);"/>
                            <path d="M230,380C237.288,380 244.115,381.959 250,385.365L250,338.181C243.514,339.372 236.831,340 230,340C223.169,340 216.486,339.372 210,338.181L210,385.365C215.885,381.959 222.712,380 230,380Z" style="fill:rgb(11,56,156);fill-rule:nonzero;"/>
                            <path d="M336.066,336.066C341.22,330.912 347.432,327.47 354.002,325.717L320.638,292.353C316.894,297.782 312.612,302.952 307.782,307.782C302.952,312.612 297.782,316.894 292.353,320.638L325.717,354.002C327.47,347.432 330.912,341.22 336.066,336.066Z" style="fill:rgb(11,56,156);fill-rule:nonzero;"/>
                            <circle cx="364.35" cy="364.35" r="40" style="fill:rgb(19,152,173);"/>
                            <path d="M380,230C380,222.712 381.959,215.885 385.365,210L338.181,210C339.372,216.486 340,223.169 340,230C340,236.831 339.372,243.514 338.181,250L385.365,250C381.959,244.115 380,237.288 380,230Z" style="fill:rgb(11,56,156);fill-rule:nonzero;"/>
                            <circle cx="420" cy="230" r="40" style="fill:rgb(19,152,173);"/>
                            <path d="M336.066,123.934C330.912,118.78 327.47,112.568 325.717,105.998L292.353,139.362C297.782,143.106 302.952,147.388 307.782,152.218C312.612,157.048 316.894,162.218 320.638,167.647L354.002,134.283C347.432,132.53 341.22,129.088 336.066,123.934Z" style="fill:rgb(11,56,156);fill-rule:nonzero;"/>
                            <circle cx="364.35" cy="95.65" r="40" style="fill:rgb(19,152,173);"/>
                            <path d="M190,230C190,207.909 207.909,190 230,190L230,120C169.249,120 120,169.249 120,230C120,290.751 169.249,340 230,340L230,270C207.909,270 190,252.091 190,230Z" style="fill:rgb(239,158,143);fill-rule:nonzero;"/>
                            <path d="M230,120L230,190C252.091,190 270,207.909 270,230C270,252.091 252.091,270 230,270L230,340C290.751,340 340,290.751 340,230C340,169.249 290.751,120 230,120Z" style="fill:rgb(245,123,113);fill-rule:nonzero;"/>
                            <path d="M190,40C190,62.091 207.909,80 230,80L230,0C207.909,0 190,17.909 190,40Z" style="fill:rgb(63,195,216);fill-rule:nonzero;"/>
                            <path d="M270,40C270,17.909 252.091,0 230,0L230,80C252.091,80 270,62.091 270,40Z" style="fill:rgb(19,152,173);fill-rule:nonzero;"/>
                            <path d="M270,420C270,397.909 252.091,380 230,380L230,460C252.091,460 270,442.091 270,420Z" style="fill:rgb(19,152,173);fill-rule:nonzero;"/>
                            <path d="M190,420C190,442.091 207.909,460 230,460L230,380C207.909,380 190,397.909 190,420Z" style="fill:rgb(63,195,216);fill-rule:nonzero;"/>
                            <path d="M270,230C270,207.909 252.091,190 230,190L230,270C252.091,270 270,252.091 270,230Z" style="fill:rgb(239,140,167);fill-rule:nonzero;"/>
                            <path d="M190,230C190,252.091 207.909,270 230,270L230,190C207.909,190 190,207.909 190,230Z" style="fill:white;fill-rule:nonzero;"/>
                        </g>
                    </g>
                </g>
                <g transform="matrix(0.300771,-0.114625,0.114625,0.300771,4572.83,-823.585)">
                    <g transform="matrix(1,0,0,1,-230,-230)">
                        <clipPath id="_clip1">
                            <rect x="0" y="0" width="460" height="460"/>
                        </clipPath>
                        <g clip-path="url(#_clip1)">
                            <g>
                                <path d="M230,80C222.712,80 215.885,78.041 210,74.635L210,121.819C216.486,120.628 223.169,120 230,120C236.831,120 243.514,120.628 250,121.819L250,74.635C244.115,78.041 237.288,80 230,80Z" style="fill:rgb(19,152,173);fill-rule:nonzero;"/>
                                <path d="M123.934,123.934C118.78,129.088 112.568,132.53 105.998,134.283L139.362,167.647C143.106,162.218 147.388,157.048 152.218,152.218C157.048,147.388 162.218,143.106 167.647,139.362L134.283,105.998C132.53,112.568 129.088,118.78 123.934,123.934Z" style="fill:rgb(19,152,173);fill-rule:nonzero;"/>
                                <circle cx="95.65" cy="95.65" r="40" style="fill:rgb(63,195,216);"/>
                                <path d="M80,230C80,237.288 78.041,244.115 74.635,250L121.819,250C120.628,243.514 120,236.831 120,230C120,223.169 120.628,216.486 121.819,210L74.635,210C78.041,215.885 80,222.712 80,230Z" style="fill:rgb(19,152,173);fill-rule:nonzero;"/>
                                <circle cx="40" cy="230" r="40" style="fill:rgb(63,195,216);"/>
                                <path d="M123.934,336.066C129.088,341.22 132.53,347.432 134.283,354.002L167.647,320.638C162.218,316.894 157.048,312.612 152.218,307.782C147.388,302.952 143.106,297.782 139.362,292.353L105.998,325.717C112.568,327.47 118.78,330.912 123.934,336.066Z" style="fill:rgb(19,152,173);fill-rule:nonzero;"/>
                                <circle cx="95.65" cy="364.35" r="40" style="fill:rgb(63,195,216);"/>
                                <path d="M230,380C237.288,380 244.115,381.959 250,385.365L250,338.181C243.514,339.372 236.831,340 230,340C223.169,340 216.486,339.372 210,338.181L210,385.365C215.885,381.959 222.712,380 230,380Z" style="fill:rgb(11,56,156);fill-rule:nonzero;"/>
                                <path d="M336.066,336.066C341.22,330.912 347.432,327.47 354.002,325.717L320.638,292.353C316.894,297.782 312.612,302.952 307.782,307.782C302.952,312.612 297.782,316.894 292.353,320.638L325.717,354.002C327.47,347.432 330.912,341.22 336.066,336.066Z" style="fill:rgb(11,56,156);fill-rule:nonzero;"/>
                                <circle cx="364.35" cy="364.35" r="40" style="fill:rgb(19,152,173);"/>
                                <path d="M380,230C380,222.712 381.959,215.885 385.365,210L338.181,210C339.372,216.486 340,223.169 340,230C340,236.831 339.372,243.514 338.181,250L385.365,250C381.959,244.115 380,237.288 380,230Z" style="fill:rgb(11,56,156);fill-rule:nonzero;"/>
                                <circle cx="420" cy="230" r="40" style="fill:rgb(19,152,173);"/>
                                <path d="M336.066,123.934C330.912,118.78 327.47,112.568 325.717,105.998L292.353,139.362C297.782,143.106 302.952,147.388 307.782,152.218C312.612,157.048 316.894,162.218 320.638,167.647L354.002,134.283C347.432,132.53 341.22,129.088 336.066,123.934Z" style="fill:rgb(11,56,156);fill-rule:nonzero;"/>
                                <circle cx="364.35" cy="95.65" r="40" style="fill:rgb(19,152,173);"/>
                                <path d="M190,230C190,207.909 207.909,190 230,190L230,120C169.249,120 120,169.249 120,230C120,290.751 169.249,340 230,340L230,270C207.909,270 190,252.091 190,230Z" style="fill:rgb(239,158,143);fill-rule:nonzero;"/>
                                <path d="M230,120L230,190C252.091,190 270,207.909 270,230C270,252.091 252.091,270 230,270L230,340C290.751,340 340,290.751 340,230C340,169.249 290.751,120 230,120Z" style="fill:rgb(245,123,113);fill-rule:nonzero;"/>
                                <path d="M190,40C190,62.091 207.909,80 230,80L230,0C207.909,0 190,17.909 190,40Z" style="fill:rgb(63,195,216);fill-rule:nonzero;"/>
                                <path d="M270,40C270,17.909 252.091,0 230,0L230,80C252.091,80 270,62.091 270,40Z" style="fill:rgb(19,152,173);fill-rule:nonzero;"/>
                                <path d="M270,420C270,397.909 252.091,380 230,380L230,460C252.091,460 270,442.091 270,420Z" style="fill:rgb(19,152,173);fill-rule:nonzero;"/>
                                <path d="M190,420C190,442.091 207.909,460 230,460L230,380C207.909,380 190,397.909 190,420Z" style="fill:rgb(63,195,216);fill-rule:nonzero;"/>
                                <path d="M270,230C270,207.909 252.091,190 230,190L230,270C252.091,270 270,252.091 270,230Z" style="fill:rgb(239,140,167);fill-rule:nonzero;"/>
                                <path d="M190,230C190,252.091 207.909,270 230,270L230,190C207.909,190 190,207.909 190,230Z" style="fill:white;fill-rule:nonzero;"/>
                            </g>
                        </g>
                    </g>
                </g>
            </g>
        </g>
    </g>
</svg>
