<?xml version="1.0" encoding="UTF-8" standalone="no"?><!DOCTYPE svg PUBLIC "-//W3C//DTD SVG 1.1//EN" "http://www.w3.org/Graphics/SVG/1.1/DTD/svg11.dtd"><svg width="100%" height="100%" viewBox="0 0 19 19" version="1.1" xmlns="http://www.w3.org/2000/svg" xmlns:xlink="http://www.w3.org/1999/xlink" xml:space="preserve" xmlns:serif="http://www.serif.com/" style="fill-rule:evenodd;clip-rule:evenodd;stroke-linejoin:round;stroke-miterlimit:1.41421;"><path id="close" d="M18.562,14.937c0,0.391 -0.156,0.781 -0.438,1.062l-2.125,2.125c-0.281,0.281 -0.672,0.438 -1.062,0.438c-0.39,0 -0.781,-0.156 -1.062,-0.438l-4.594,-4.594l-4.594,4.594c-0.281,0.281 -0.672,0.438 -1.062,0.438c-0.39,0 -0.781,-0.156 -1.062,-0.438l-2.125,-2.125c-0.281,-0.281 -0.438,-0.672 -0.438,-1.062c0,-0.39 0.156,-0.781 0.438,-1.062l4.594,-4.594l-4.594,-4.594c-0.281,-0.281 -0.438,-0.672 -0.438,-1.062c0,-0.39 0.156,-0.781 0.438,-1.062l2.125,-2.125c0.281,-0.281 0.672,-0.438 1.062,-0.438c0.39,0 0.781,0.156 1.062,0.438l4.594,4.594l4.594,-4.594c0.281,-0.281 0.672,-0.438 1.062,-0.438c0.39,0 0.781,0.156 1.062,0.438l2.125,2.125c0.281,0.281 0.438,0.672 0.438,1.062c0,0.39 -0.156,0.781 -0.438,1.062l-4.594,4.594l4.594,4.594c0.281,0.281 0.438,0.672 0.438,1.062l0,0Z" style="fill:#fff;fill-rule:nonzero;"/></svg>