<?xml version="1.0" encoding="UTF-8" standalone="no"?><!DOCTYPE svg PUBLIC "-//W3C//DTD SVG 1.1//EN" "http://www.w3.org/Graphics/SVG/1.1/DTD/svg11.dtd"><svg width="100%" height="100%" viewBox="0 0 388 431" version="1.1" xmlns="http://www.w3.org/2000/svg" xmlns:xlink="http://www.w3.org/1999/xlink" xml:space="preserve" xmlns:serif="http://www.serif.com/" style="fill-rule:evenodd;clip-rule:evenodd;stroke-linejoin:round;stroke-miterlimit:1.41421;"><g><path d="M175.966,7.194c0,-3.971 -3.224,-7.194 -7.194,-7.194l-45.721,0c-3.97,0 -7.194,3.223 -7.194,7.194c0,3.97 3.224,7.193 7.194,7.193l45.721,0c3.97,0 7.194,-3.223 7.194,-7.193Z" style="fill:#fff;"/><path d="M175.966,423.108c0,-3.97 -3.224,-7.194 -7.194,-7.194l-45.721,0c-3.97,0 -7.194,3.224 -7.194,7.194c0,3.97 3.224,7.194 7.194,7.194l45.721,0c3.97,0 7.194,-3.224 7.194,-7.194Z" style="fill:#fff;"/><path d="M380.709,194.172c3.97,0 7.194,-3.223 7.194,-7.193l0,-45.721c0,-3.971 -3.224,-7.194 -7.194,-7.194c-3.97,0 -7.194,3.223 -7.194,7.194l0,45.721c0,3.97 3.224,7.193 7.194,7.193Z" style="fill:#fff;"/><path d="M7.194,194.172c3.97,0 7.193,-3.223 7.193,-7.193l0,-45.721c0,-3.971 -3.223,-7.194 -7.193,-7.194c-3.971,0 -7.194,3.223 -7.194,7.194l0,45.721c0,3.97 3.223,7.193 7.194,7.193Z" style="fill:#fff;"/><path d="M77.191,7.194c0,-3.971 -3.223,-7.194 -7.194,-7.194l-45.721,0c-3.97,0 -7.193,3.223 -7.193,7.194c0,3.97 3.223,7.193 7.193,7.193l45.721,0c3.971,0 7.194,-3.223 7.194,-7.193Z" style="fill:#fff;"/><path d="M77.191,423.108c0,-3.97 -3.223,-7.194 -7.194,-7.194l-45.721,0c-3.97,0 -7.193,3.224 -7.193,7.194c0,3.97 3.223,7.194 7.193,7.194l45.721,0c3.971,0 7.194,-3.224 7.194,-7.194Z" style="fill:#fff;"/><path d="M380.709,95.397c3.97,0 7.194,-3.223 7.194,-7.193l0,-45.721c0,-3.971 -3.224,-7.194 -7.194,-7.194c-3.97,0 -7.194,3.223 -7.194,7.194l0,45.721c0,3.97 3.224,7.193 7.194,7.193Z" style="fill:#fff;"/><path d="M7.194,95.397c3.97,0 7.193,-3.223 7.193,-7.193l0,-45.721c0,-3.971 -3.223,-7.194 -7.193,-7.194c-3.971,0 -7.194,3.223 -7.194,7.194l0,45.721c0,3.97 3.223,7.193 7.194,7.193Z" style="fill:#fff;"/><path d="M274.74,7.194c0,-3.971 -3.223,-7.194 -7.193,-7.194l-45.721,0c-3.971,0 -7.194,3.223 -7.194,7.194c0,3.97 3.223,7.193 7.194,7.193l45.721,0c3.97,0 7.193,-3.223 7.193,-7.193Z" style="fill:#fff;"/><path d="M274.74,423.108c0,-3.97 -3.223,-7.194 -7.193,-7.194l-45.721,0c-3.971,0 -7.194,3.224 -7.194,7.194c0,3.97 3.223,7.194 7.194,7.194l45.721,0c3.97,0 7.193,-3.224 7.193,-7.194Z" style="fill:#fff;"/><path d="M380.709,292.947c3.97,0 7.194,-3.223 7.194,-7.194l0,-45.721c0,-3.97 -3.224,-7.193 -7.194,-7.193c-3.97,0 -7.194,3.223 -7.194,7.193l0,45.721c0,3.971 3.224,7.194 7.194,7.194Z" style="fill:#fff;"/><path d="M7.194,292.947c3.97,0 7.193,-3.223 7.193,-7.194l0,-45.721c0,-3.97 -3.223,-7.193 -7.193,-7.193c-3.971,0 -7.194,3.223 -7.194,7.193l0,45.721c0,3.971 3.223,7.194 7.194,7.194Z" style="fill:#fff;"/><path d="M373.515,7.194c0,-3.971 -3.223,-7.194 -7.194,-7.194l-45.721,0c-3.97,0 -7.193,3.223 -7.193,7.194c0,3.97 3.223,7.193 7.193,7.193l45.721,0c3.971,0 7.194,-3.223 7.194,-7.193Z" style="fill:#fff;"/><path d="M373.515,423.108c0,-3.97 -3.223,-7.194 -7.194,-7.194l-45.721,0c-3.97,0 -7.193,3.224 -7.193,7.194c0,3.97 3.223,7.194 7.193,7.194l45.721,0c3.971,0 7.194,-3.224 7.194,-7.194Z" style="fill:#fff;"/><path d="M380.709,391.722c3.97,0 7.194,-3.224 7.194,-7.194l0,-45.721c0,-3.97 -3.224,-7.194 -7.194,-7.194c-3.97,0 -7.194,3.224 -7.194,7.194l0,45.721c0,3.97 3.224,7.194 7.194,7.194Z" style="fill:#fff;"/><path d="M7.194,391.722c3.97,0 7.193,-3.224 7.193,-7.194l0,-45.721c0,-3.97 -3.223,-7.194 -7.193,-7.194c-3.971,0 -7.194,3.224 -7.194,7.194l0,45.721c0,3.97 3.223,7.194 7.194,7.194Z" style="fill:#fff;"/></g></svg>