<?xml version="1.0" encoding="UTF-8" standalone="no"?><!DOCTYPE svg PUBLIC "-//W3C//DTD SVG 1.1//EN" "http://www.w3.org/Graphics/SVG/1.1/DTD/svg11.dtd"><svg width="100%" height="100%" viewBox="0 0 670 670" version="1.1" xmlns="http://www.w3.org/2000/svg" xmlns:xlink="http://www.w3.org/1999/xlink" xml:space="preserve" xmlns:serif="http://www.serif.com/" style="fill-rule:evenodd;clip-rule:evenodd;stroke-linejoin:round;stroke-miterlimit:1.41421;"><g><circle cx="334.578" cy="334.578" r="334.578" style="fill:#fff;"/><g><rect x="321.938" y="128.765" width="25.278" height="67.188" style="fill:#369151;"/><path d="M373.388,74.848c-17.413,4.665 -30.11,15.368 -38.812,25.731c-8.702,-10.363 -21.399,-21.066 -38.811,-25.731c-38.703,-10.371 -72.153,16.731 -72.153,16.731c0,0 15.417,40.196 54.12,50.566c22.621,6.061 43.442,-0.678 56.844,-7.325c13.402,6.647 34.224,13.386 56.844,7.325c38.703,-10.37 54.121,-50.566 54.121,-50.566c0,0 -33.451,-27.102 -72.153,-16.731Z" style="fill:#8adb53;fill-rule:nonzero;"/><path d="M373.388,74.848c-17.413,4.665 -30.11,15.368 -38.812,25.731c0,14.241 0,17.733 0,34.241c13.402,6.647 34.224,13.386 56.844,7.325c38.703,-10.37 54.121,-50.566 54.121,-50.566c0,0 -33.451,-27.102 -72.153,-16.731Z" style="fill:#4fc16e;fill-rule:nonzero;"/><circle cx="334.577" cy="339.585" r="164.306" style="fill:#7bcefc;"/><path d="M334.575,175.273c90.746,0 164.309,73.565 164.309,164.31c0,90.745 -73.564,164.308 -164.309,164.308c0,-130.702 0,-253.563 0,-328.618Z" style="fill:#009dff;fill-rule:nonzero;"/><path d="M284.498,400.355c22.809,18.786 25.264,41.757 32.527,49.131c20.707,21.025 48.025,-0.482 35.872,-25.047c-4.188,-8.464 -16.904,-38.007 2.64,-65.574c20.115,-28.37 -23.398,-62.989 -46.518,-37.46c-22.187,24.498 -79.922,-4.711 -45.343,-54.041c18.625,-26.569 -4.471,-50.101 -34.84,-52.937l-0.652,-0.046c-32.86,27.951 -54.571,68.604 -57.55,114.37c18.095,11.351 45.193,18.201 67.143,33.552c13.233,9.256 31.882,25.831 46.721,38.052Z" style="fill:#8adb53;fill-rule:nonzero;"/><path d="M344.139,229.709c50.517,14.536 60.144,-38.675 60.189,-38.926c-21.175,-9.943 -44.812,-15.51 -69.753,-15.51c-3.281,0 -6.537,0.107 -9.77,0.297c-15.538,18.03 -2.368,47.895 19.334,54.139Z" style="fill:#8adb53;fill-rule:nonzero;"/><path d="M471.236,248.344c1.569,9.51 -10.785,17.348 -18.198,18.911c-11.48,2.421 -24.45,1.526 -35.083,7.088c-11.57,6.053 -16.603,23.435 -11.84,35.344c3.356,8.393 11.1,13.037 19.922,13.547c14.81,0.855 24.678,6.716 28.48,24.719c0,0 10.256,34.153 35.864,43.925c5.511,-16.427 8.502,-34.012 8.502,-52.295c0.001,-33.76 -10.187,-65.138 -27.647,-91.239Z" style="fill:#4fc16e;fill-rule:nonzero;"/><path d="M334.576,175.273l0,49.847c2.922,2.025 6.135,3.603 9.563,4.589c50.517,14.536 60.144,-38.675 60.189,-38.926c-21.175,-9.943 -44.811,-15.51 -69.752,-15.51Z" style="fill:#4fc16e;fill-rule:nonzero;"/><path d="M355.537,358.865c13.714,-19.343 -2.15,-41.584 -20.962,-45.693l0,144.823c15.158,0.502 27.147,-15.717 18.322,-33.557c-4.188,-8.463 -16.904,-38.006 2.64,-65.573Z" style="fill:#4fc16e;fill-rule:nonzero;"/></g></g></svg>