<?xml version="1.0" encoding="UTF-8" standalone="no"?>
<!DOCTYPE svg PUBLIC "-//W3C//DTD SVG 1.1//EN" "http://www.w3.org/Graphics/SVG/1.1/DTD/svg11.dtd">
<svg width="100%" height="100%" viewBox="0 0 670 670" version="1.1" xmlns="http://www.w3.org/2000/svg" xmlns:xlink="http://www.w3.org/1999/xlink" xml:space="preserve" xmlns:serif="http://www.serif.com/" style="fill-rule:evenodd;clip-rule:evenodd;stroke-linejoin:round;stroke-miterlimit:1.41421;">
    <g transform="matrix(1,0,0,1,-291.449,-250.501)">
        <g transform="matrix(1.37935,0,0,0.66292,862.352,239.037)">
            <g transform="matrix(0.724977,0,0,1.50848,-1733.8,1963.14)">
                <circle cx="2155.2" cy="-955.361" r="334.578" style="fill:white;"/>
                <g transform="matrix(0.783833,0,0,0.783833,2155.21,-955.361)">
                    <g transform="matrix(1,0,0,1,-255.998,-255.998)">
                        <clipPath id="_clip1">
                            <rect x="0" y="0" width="511.996" height="511.996"/>
                        </clipPath>
                        <g clip-path="url(#_clip1)">
                            <path d="M267.287,58.124L234.172,54.271C185.635,48.623 136.596,63.709 99.627,95.662C99.611,95.676 99.597,95.692 99.581,95.706C99.302,95.95 99.036,96.212 98.772,96.48C98.674,96.58 98.568,96.674 98.473,96.776C98.281,96.983 98.102,97.205 97.92,97.425C97.772,97.602 97.618,97.775 97.48,97.958C97.36,98.116 97.253,98.287 97.138,98.451C96.961,98.706 96.782,98.959 96.622,99.223C96.603,99.254 96.581,99.281 96.563,99.312C96.48,99.451 96.415,99.596 96.337,99.737C96.193,99.996 96.048,100.254 95.921,100.521C95.805,100.761 95.708,101.004 95.606,101.249C95.524,101.445 95.438,101.639 95.365,101.839C95.249,102.152 95.153,102.469 95.06,102.786C95.021,102.921 94.976,103.054 94.941,103.189C94.845,103.55 94.77,103.914 94.702,104.279C94.683,104.381 94.661,104.481 94.644,104.583C94.582,104.96 94.539,105.339 94.506,105.718C94.497,105.82 94.485,105.921 94.478,106.022C94.454,106.385 94.448,106.749 94.45,107.111C94.451,107.239 94.449,107.366 94.453,107.494C94.464,107.823 94.49,108.15 94.522,108.477C94.538,108.643 94.552,108.809 94.573,108.975C94.611,109.261 94.662,109.544 94.716,109.828C94.754,110.031 94.791,110.234 94.838,110.437C94.896,110.686 94.966,110.93 95.037,111.177C95.102,111.403 95.166,111.628 95.241,111.853C95.319,112.083 95.409,112.309 95.499,112.536C95.587,112.76 95.674,112.984 95.774,113.206C95.881,113.444 96.002,113.675 96.122,113.909C96.223,114.104 96.32,114.301 96.43,114.493C96.584,114.761 96.753,115.02 96.924,115.28C97.021,115.426 97.111,115.575 97.213,115.719C97.426,116.019 97.658,116.308 97.895,116.593C97.962,116.674 98.019,116.761 98.088,116.841C98.104,116.859 98.121,116.874 98.137,116.892C98.375,117.165 98.631,117.424 98.892,117.681C98.998,117.786 99.099,117.898 99.207,117.999C99.403,118.181 99.614,118.351 99.822,118.524C100.012,118.683 100.198,118.848 100.394,118.997C100.529,119.099 100.674,119.19 100.813,119.288C101.094,119.486 101.376,119.683 101.669,119.86C101.692,119.874 101.713,119.891 101.737,119.905L183.286,168.7C189.093,172.175 196.302,171.271 201.071,166.953C201.435,166.624 201.766,166.257 202.086,165.885L275.663,80.358C282.35,72.584 278.387,60.151 268.305,58.281C267.969,58.215 267.63,58.164 267.287,58.124Z" style="fill:rgb(255,108,35);fill-rule:nonzero;"/>
                            <path d="M436.269,234.944L356.112,304.116C354.596,305.425 352.99,306.625 351.425,307.876C345.646,312.492 344.028,320.781 347.93,327.304L396.726,408.854C396.74,408.877 396.756,408.897 396.77,408.92C396.949,409.216 397.149,409.502 397.35,409.788C397.445,409.923 397.534,410.064 397.632,410.195C397.783,410.395 397.951,410.585 398.114,410.778C398.284,410.981 398.45,411.189 398.63,411.383C398.734,411.494 398.848,411.597 398.956,411.705C399.211,411.962 399.467,412.216 399.738,412.453C399.756,412.469 399.772,412.487 399.79,412.503C399.884,412.584 399.985,412.652 400.08,412.73C400.341,412.944 400.601,413.157 400.875,413.353C401.037,413.469 401.206,413.571 401.371,413.68C401.599,413.83 401.825,413.983 402.062,414.12C402.307,414.263 402.558,414.387 402.81,414.514C402.975,414.598 403.137,414.689 403.305,414.767C403.63,414.917 403.961,415.046 404.293,415.172C404.399,415.212 404.503,415.26 404.61,415.297C404.989,415.431 405.375,415.543 405.761,415.645C405.831,415.664 405.9,415.688 405.97,415.706C406.372,415.806 406.778,415.884 407.185,415.95C407.249,415.96 407.311,415.977 407.375,415.987C407.78,416.047 408.188,416.086 408.595,416.113C408.708,416.121 408.82,416.129 408.933,416.134C409.35,416.153 409.768,416.159 410.185,416.143C410.477,416.132 410.77,416.097 411.062,416.069C411.236,416.052 411.412,416.045 411.585,416.022C411.849,415.987 412.112,415.931 412.377,415.882C412.582,415.844 412.788,415.812 412.993,415.765C413.217,415.713 413.439,415.645 413.663,415.582C413.91,415.513 414.157,415.446 414.402,415.364C414.584,415.302 414.764,415.23 414.945,415.16C415.23,415.052 415.512,414.94 415.792,414.814C415.941,414.746 416.088,414.672 416.235,414.599C416.537,414.45 416.837,414.293 417.13,414.123C417.191,414.088 417.254,414.061 417.314,414.025C417.459,413.938 417.596,413.844 417.737,413.754C417.85,413.681 417.965,413.613 418.077,413.536C418.407,413.311 418.723,413.072 419.029,412.825C419.106,412.763 419.182,412.698 419.258,412.634C419.595,412.352 419.924,412.06 420.231,411.753C420.416,411.568 420.586,411.371 420.76,411.177C420.827,411.103 420.898,411.034 420.963,410.958C420.97,410.949 420.978,410.941 420.985,410.932C421.048,410.859 421.11,410.785 421.171,410.711C452.977,373.771 467.986,324.843 462.352,276.415L458.499,243.299C458.459,242.956 458.408,242.616 458.346,242.282C456.478,232.198 444.034,228.243 436.269,234.944Z" style="fill:rgb(255,74,0);fill-rule:nonzero;"/>
                            <path d="M489.75,59.484C496.41,60.355 502.333,63.787 506.431,69.144C510.55,74.537 512.312,81.196 511.399,87.912C506.664,122.583 497.117,165.435 478.072,206.942C464.604,236.347 446.36,265.067 421.682,289.744C390.592,320.834 350.011,344.797 301.073,360.982C264.683,373.013 229.318,378.753 202.85,381.485L194.874,497.756C194.874,497.77 194.874,497.784 194.867,497.806L194.86,498.025C194.853,498.089 194.839,498.145 194.839,498.202C194.811,498.541 194.768,498.882 194.719,499.214C194.705,499.355 194.677,499.497 194.655,499.631C194.599,499.9 194.549,500.161 194.478,500.431C194.443,500.594 194.407,500.756 194.365,500.912C194.301,501.159 194.224,501.407 194.146,501.641C194.047,501.938 193.941,502.229 193.835,502.519C193.75,502.731 193.665,502.943 193.573,503.149C193.488,503.333 193.396,503.51 193.304,503.7C193.205,503.884 193.12,504.068 193.014,504.259C192.922,504.422 192.83,504.584 192.731,504.74C192.611,504.945 192.476,505.15 192.349,505.349C192.257,505.483 192.172,505.611 192.08,505.731C191.896,505.986 191.712,506.226 191.514,506.467C191.457,506.538 191.408,506.615 191.344,506.679C191.075,507.004 190.792,507.316 190.494,507.613C190.133,507.974 189.751,508.314 189.355,508.639C189.298,508.681 189.242,508.724 189.185,508.766C188.86,509.021 188.519,509.275 188.159,509.509C188.01,509.615 187.848,509.693 187.692,509.792C187.43,509.955 187.176,510.11 186.899,510.259C186.673,510.372 186.447,510.471 186.219,510.584C186.064,510.655 185.929,510.732 185.774,510.803C185.703,510.831 185.625,510.852 185.555,510.881C185.286,510.994 185.011,511.086 184.734,511.178C184.515,511.256 184.281,511.333 184.061,511.397C183.814,511.475 183.552,511.538 183.296,511.595C183.034,511.659 182.766,511.715 182.489,511.765C182.27,511.8 182.051,511.836 181.823,511.864C181.498,511.906 181.186,511.935 180.86,511.963C180.669,511.97 180.485,511.984 180.294,511.991C179.919,511.998 179.558,511.991 179.183,511.97C179.07,511.97 178.964,511.977 178.851,511.963C178.802,511.97 178.759,511.956 178.71,511.949C178.392,511.928 178.08,511.885 177.769,511.843C177.578,511.808 177.38,511.794 177.189,511.758C176.942,511.709 176.694,511.645 176.446,511.595C176.206,511.538 175.965,511.482 175.724,511.411C175.547,511.361 175.37,511.298 175.201,511.241C174.904,511.142 174.613,511.05 174.323,510.93C174.196,510.887 174.075,510.824 173.955,510.774C173.637,510.64 173.311,510.498 173.007,510.336C172.873,510.272 172.745,510.188 172.618,510.117C172.335,509.961 172.045,509.799 171.776,509.629C171.571,509.495 171.366,509.346 171.167,509.205C170.99,509.071 170.792,508.943 170.615,508.809C170.346,508.597 170.092,508.371 169.843,508.136C169.737,508.044 169.631,507.966 169.539,507.874C169.277,507.626 169.037,507.358 168.788,507.095C168.71,507.003 168.611,506.918 168.534,506.826C168.336,506.586 168.138,506.331 167.946,506.083C167.84,505.934 167.727,505.807 167.628,505.666C167.479,505.461 167.352,505.235 167.218,505.029C167.084,504.81 166.942,504.598 166.815,504.385C166.723,504.208 166.638,504.039 166.546,503.862C166.405,503.579 166.263,503.31 166.136,503.012C166.122,502.97 166.094,502.927 166.08,502.885L119.039,392.658L119.018,392.651L9.518,346.312C9.468,346.291 9.419,346.255 9.369,346.234C9.079,346.114 8.81,345.972 8.527,345.831C8.35,345.739 8.166,345.654 7.997,345.555C7.778,345.435 7.566,345.293 7.345,345.159C7.14,345.025 6.921,344.89 6.722,344.749C6.566,344.636 6.418,344.516 6.269,344.41C6.022,344.219 5.781,344.035 5.554,343.837C5.441,343.738 5.342,343.639 5.229,343.54C4.981,343.307 4.734,343.087 4.5,342.839C4.387,342.726 4.288,342.599 4.182,342.478C3.977,342.245 3.758,342.011 3.573,341.77C3.424,341.579 3.297,341.381 3.156,341.197C3.022,341.006 2.873,340.815 2.753,340.609C2.583,340.354 2.435,340.079 2.286,339.816C2.208,339.668 2.109,339.526 2.031,339.378C1.883,339.088 1.748,338.783 1.621,338.472C1.557,338.338 1.494,338.203 1.437,338.062C1.324,337.779 1.225,337.496 1.133,337.205C1.076,337.021 1.006,336.851 0.956,336.661C0.885,336.421 0.829,336.18 0.779,335.932C0.715,335.685 0.659,335.444 0.609,335.195C0.574,334.99 0.545,334.792 0.517,334.593C0.482,334.289 0.432,333.984 0.411,333.68C0.404,333.616 0.397,333.567 0.397,333.51C0.383,333.383 0.39,333.262 0.383,333.128C0.369,332.817 0.362,332.498 0.369,332.179C0.369,331.967 0.39,331.762 0.397,331.556C0.418,331.28 0.44,331.005 0.461,330.728C0.496,330.481 0.539,330.226 0.581,329.985C0.616,329.752 0.652,329.532 0.708,329.305C0.765,329.008 0.849,328.725 0.927,328.434C0.977,328.257 1.026,328.08 1.075,327.904C1.188,327.579 1.301,327.267 1.421,326.948C1.471,326.842 1.492,326.736 1.541,326.63C1.562,326.581 1.583,326.545 1.605,326.496C1.732,326.199 1.881,325.909 2.036,325.611C2.114,325.448 2.199,325.279 2.283,325.123C2.417,324.89 2.559,324.663 2.714,324.436C2.834,324.231 2.961,324.033 3.096,323.841C3.209,323.671 3.336,323.516 3.464,323.36C3.641,323.127 3.818,322.893 4.001,322.666C4.107,322.546 4.22,322.433 4.333,322.32C4.559,322.08 4.771,321.839 5.006,321.619C5.126,321.499 5.268,321.386 5.395,321.273C5.621,321.075 5.841,320.87 6.082,320.685C6.273,320.537 6.478,320.402 6.684,320.254C6.868,320.127 7.038,319.985 7.228,319.865C7.497,319.695 7.779,319.54 8.063,319.384C8.197,319.306 8.325,319.221 8.466,319.151C8.763,318.995 9.082,318.861 9.393,318.72C9.52,318.663 9.648,318.607 9.775,318.55C10.072,318.437 10.363,318.345 10.66,318.246C10.837,318.182 10.999,318.119 11.176,318.069C11.423,318.005 11.671,317.942 11.926,317.885C12.167,317.829 12.407,317.772 12.655,317.722C12.846,317.687 13.051,317.665 13.257,317.63C13.561,317.595 13.866,317.545 14.17,317.524C14.227,317.524 14.283,317.51 14.333,317.503L130.101,309.576C132.797,283.044 138.494,247.58 150.526,211.062C166.711,161.911 190.732,121.175 221.92,89.986C246.824,65.082 275.855,46.724 305.537,33.206C346.882,14.381 389.493,4.919 424.016,0.234C430.747,-0.679 437.421,1.098 442.813,5.244C448.178,9.363 451.596,15.315 452.438,22.002C453.641,31.542 457.852,40.184 464.64,47.027L464.781,47.168C471.596,53.985 480.224,58.238 489.75,59.484Z" style="fill:rgb(255,177,83);fill-rule:nonzero;"/>
                            <path d="M506.43,69.144C510.549,74.537 512.311,81.196 511.398,87.912C506.663,122.583 497.116,165.435 478.071,206.942C464.603,236.347 446.359,265.067 421.681,289.744C390.591,320.834 350.01,344.797 301.072,360.982C264.682,373.013 229.317,378.753 202.849,381.485L194.873,497.756C194.873,497.77 194.873,497.784 194.866,497.806L194.859,498.025C194.852,498.089 194.838,498.145 194.838,498.202C194.81,498.541 194.767,498.882 194.718,499.214C194.704,499.355 194.676,499.497 194.654,499.631C194.598,499.9 194.548,500.161 194.477,500.431C194.442,500.594 194.406,500.756 194.364,500.912C194.3,501.159 194.223,501.407 194.145,501.641C194.046,501.938 193.94,502.229 193.834,502.519C193.749,502.731 193.664,502.943 193.572,503.149C193.487,503.333 193.395,503.51 193.303,503.7C193.204,503.884 193.119,504.068 193.013,504.259C192.921,504.422 192.829,504.584 192.73,504.74C192.61,504.945 192.475,505.15 192.348,505.349C192.256,505.483 192.171,505.611 192.079,505.731C191.895,505.986 191.711,506.226 191.513,506.467C191.456,506.538 191.407,506.615 191.343,506.679C191.074,507.004 190.791,507.316 190.493,507.613C190.132,507.974 189.75,508.314 189.354,508.639C189.297,508.681 189.241,508.724 189.184,508.766C188.859,509.021 188.518,509.275 188.158,509.509C188.009,509.615 187.847,509.693 187.691,509.792C187.429,509.955 187.175,510.11 186.898,510.259C186.672,510.372 186.446,510.471 186.218,510.584C186.063,510.655 185.928,510.732 185.773,510.803C185.702,510.831 185.624,510.852 185.554,510.881C185.285,510.994 185.01,511.086 184.733,511.178C184.514,511.256 184.28,511.333 184.06,511.397C183.813,511.475 183.551,511.538 183.295,511.595C183.033,511.659 182.765,511.715 182.488,511.765C182.269,511.8 182.05,511.836 181.822,511.864C181.497,511.906 181.185,511.935 180.859,511.963C180.668,511.97 180.484,511.984 180.293,511.991C179.918,511.998 179.557,511.991 179.182,511.97C179.069,511.97 178.963,511.977 178.85,511.963C178.801,511.97 178.758,511.956 178.709,511.949C178.391,511.928 178.079,511.885 177.768,511.843C177.577,511.808 177.379,511.794 177.188,511.758C176.941,511.709 176.693,511.645 176.445,511.595C176.205,511.538 175.964,511.482 175.723,511.411C175.546,511.361 175.369,511.298 175.2,511.241C174.903,511.142 174.612,511.05 174.322,510.93C174.195,510.887 174.074,510.824 173.954,510.774C173.636,510.64 173.31,510.498 173.006,510.336C172.872,510.272 172.744,510.188 172.617,510.117C172.334,509.961 172.044,509.799 171.775,509.629C171.57,509.495 171.365,509.346 171.166,509.205C170.989,509.071 170.791,508.943 170.614,508.809C170.345,508.597 170.091,508.371 169.842,508.136C169.736,508.044 169.63,507.966 169.538,507.874C169.276,507.626 169.036,507.358 168.787,507.095C168.709,507.003 168.61,506.918 168.533,506.826C168.335,506.586 168.137,506.331 167.945,506.083C167.839,505.934 167.726,505.807 167.627,505.666C167.478,505.461 167.351,505.235 167.217,505.029C167.083,504.81 166.941,504.598 166.814,504.385C166.722,504.208 166.637,504.039 166.545,503.862C166.404,503.579 166.262,503.31 166.135,503.012C166.121,502.97 166.093,502.927 166.079,502.885L119.038,392.658L119.017,392.651L464.641,47.025L464.782,47.166C471.597,53.981 480.224,58.235 489.75,59.481C496.409,60.355 502.333,63.787 506.43,69.144Z" style="fill:rgb(255,153,52);fill-rule:nonzero;"/>
                            <path d="M489.75,59.484C496.41,60.355 502.333,63.787 506.431,69.144C510.55,74.537 512.312,81.196 511.399,87.912C506.664,122.583 497.117,165.435 478.072,206.942C470.648,205.35 463.394,203.347 460.91,202.702C424.512,193.212 391.129,174.053 364.385,147.309C364.378,147.302 364.378,147.302 364.371,147.295C337.627,120.55 318.469,87.167 308.964,50.756C308.291,48.159 306.869,41.329 305.539,33.205C346.884,14.38 389.495,4.918 424.018,0.233C430.749,-0.68 437.423,1.097 442.815,5.243C448.18,9.362 451.598,15.314 452.44,22.001C453.643,31.541 457.869,40.197 464.655,47.04L464.782,47.167C471.596,53.985 480.224,58.238 489.75,59.484Z" style="fill:rgb(255,108,35);fill-rule:nonzero;"/>
                            <path d="M506.43,69.144C510.549,74.537 512.311,81.196 511.398,87.912C506.663,122.583 497.116,165.435 478.071,206.942C470.647,205.35 463.393,203.347 460.909,202.702C424.511,193.212 391.128,174.053 364.384,147.309L464.654,47.042L464.781,47.169C471.596,53.984 480.223,58.238 489.749,59.484C496.409,60.355 502.333,63.787 506.43,69.144Z" style="fill:rgb(255,74,0);fill-rule:nonzero;"/>
                            <path d="M425.22,86.476L425.347,86.603C425.693,86.949 426.034,87.318 426.345,87.7C426.649,88.075 426.947,88.472 427.216,88.882C427.485,89.292 427.739,89.717 427.974,90.149C428.207,90.58 428.412,91.027 428.597,91.479C428.788,91.924 428.951,92.399 429.099,92.859C429.24,93.326 429.354,93.808 429.453,94.288C429.552,94.769 429.63,95.258 429.672,95.739C429.729,96.234 429.743,96.73 429.75,97.218C429.743,101.174 428.151,105.046 425.355,107.841C425.008,108.188 424.64,108.514 424.258,108.825C423.876,109.136 423.479,109.434 423.069,109.703C422.659,109.972 422.234,110.226 421.809,110.453C421.378,110.686 420.931,110.891 420.479,111.076C420.027,111.274 419.566,111.437 419.099,111.578C418.632,111.72 418.143,111.84 417.67,111.932C417.189,112.031 416.7,112.109 416.212,112.158C415.724,112.208 415.228,112.236 414.74,112.229C414.245,112.229 413.756,112.208 413.261,112.151C412.78,112.109 412.284,112.038 411.803,111.939C411.322,111.84 410.847,111.72 410.381,111.578C409.914,111.437 409.447,111.267 408.994,111.083C408.541,110.899 408.102,110.687 407.671,110.453C407.232,110.227 406.807,109.972 406.404,109.696C405.994,109.427 405.59,109.137 405.222,108.825C404.84,108.514 404.464,108.181 404.118,107.834L403.991,107.707C403.694,107.396 403.411,107.07 403.134,106.737C402.816,106.362 402.525,105.958 402.256,105.548C401.98,105.145 401.733,104.727 401.506,104.288C401.273,103.857 401.061,103.417 400.876,102.965C400.692,102.512 400.522,102.045 400.381,101.578C400.24,101.111 400.112,100.629 400.02,100.156C399.921,99.675 399.85,99.179 399.801,98.691C399.751,98.203 399.723,97.707 399.73,97.219C399.723,96.731 399.751,96.235 399.801,95.747C399.85,95.259 399.921,94.763 400.02,94.282C400.112,93.808 400.239,93.327 400.381,92.86C400.522,92.393 400.685,91.933 400.876,91.473C401.067,91.028 401.272,90.581 401.506,90.15C401.732,89.726 401.98,89.293 402.256,88.89C402.525,88.48 402.822,88.083 403.134,87.701C403.757,86.936 404.457,86.236 405.222,85.613C405.597,85.309 405.994,85.011 406.404,84.742C406.807,84.466 407.239,84.219 407.671,83.985C408.095,83.759 408.549,83.547 408.994,83.355C409.447,83.171 409.914,83.001 410.381,82.86C410.848,82.719 411.322,82.598 411.803,82.499C412.284,82.4 412.773,82.336 413.261,82.287C413.749,82.237 414.245,82.209 414.74,82.209C415.221,82.209 415.724,82.23 416.212,82.28C416.7,82.329 417.189,82.407 417.67,82.506C418.144,82.598 418.633,82.718 419.099,82.86C419.559,83.008 420.033,83.171 420.479,83.362C420.932,83.546 421.378,83.751 421.809,83.985C422.24,84.218 422.659,84.466 423.069,84.735C423.479,85.004 423.876,85.301 424.258,85.613C424.59,85.889 424.908,86.179 425.22,86.476Z" style="fill:rgb(255,220,85);fill-rule:nonzero;"/>
                            <path d="M425.22,86.476L425.347,86.603C425.693,86.949 426.034,87.318 426.345,87.7C426.649,88.075 426.947,88.472 427.216,88.882C427.485,89.292 427.739,89.717 427.974,90.149C428.207,90.58 428.412,91.027 428.597,91.479C428.788,91.924 428.951,92.399 429.099,92.859C429.24,93.326 429.354,93.808 429.453,94.288C429.552,94.769 429.63,95.258 429.672,95.739C429.729,96.234 429.743,96.73 429.75,97.218C429.743,101.174 428.151,105.046 425.355,107.841C425.008,108.188 424.64,108.514 424.258,108.825C423.876,109.136 423.479,109.434 423.069,109.703C422.659,109.972 422.234,110.226 421.809,110.453C421.378,110.686 420.931,110.891 420.479,111.076C420.027,111.274 419.566,111.437 419.099,111.578C418.632,111.72 418.143,111.84 417.67,111.932C417.189,112.031 416.7,112.109 416.212,112.158C415.724,112.208 415.228,112.236 414.74,112.229C414.245,112.229 413.756,112.208 413.261,112.151C412.78,112.109 412.284,112.038 411.803,111.939C411.322,111.84 410.847,111.72 410.381,111.578C409.914,111.437 409.447,111.267 408.994,111.083C408.541,110.899 408.102,110.687 407.671,110.453C407.232,110.227 406.807,109.972 406.404,109.696C405.994,109.427 405.59,109.137 405.222,108.825C404.84,108.514 404.464,108.181 404.118,107.834L403.991,107.707L425.22,86.476Z" style="fill:rgb(255,193,64);fill-rule:nonzero;"/>
                        </g>
                    </g>
                </g>
            </g>
        </g>
    </g>
</svg>
