<?xml version="1.0" encoding="UTF-8" standalone="no"?><!DOCTYPE svg PUBLIC "-//W3C//DTD SVG 1.1//EN" "http://www.w3.org/Graphics/SVG/1.1/DTD/svg11.dtd"><svg width="100%" height="100%" viewBox="0 0 24 24" version="1.1" xmlns="http://www.w3.org/2000/svg" xmlns:xlink="http://www.w3.org/1999/xlink" xml:space="preserve" xmlns:serif="http://www.serif.com/" style="fill-rule:evenodd;clip-rule:evenodd;stroke-linejoin:round;stroke-miterlimit:1.41421;"><path id="info-circle" d="M16,19.5l0,-2.5c0,-0.281 -0.219,-0.5 -0.5,-0.5l-1.5,0l0,-8c0,-0.281 -0.219,-0.5 -0.5,-0.5l-5,0c-0.281,0 -0.5,0.219 -0.5,0.5l0,2.5c0,0.281 0.219,0.5 0.5,0.5l1.5,0l0,5l-1.5,0c-0.281,0 -0.5,0.219 -0.5,0.5l0,2.5c0,0.281 0.219,0.5 0.5,0.5l7,0c0.281,0 0.5,-0.219 0.5,-0.5Zm-2,-14l0,-2.5c0,-0.281 -0.219,-0.5 -0.5,-0.5l-3,0c-0.281,0 -0.5,0.219 -0.5,0.5l0,2.5c0,0.281 0.219,0.5 0.5,0.5l3,0c0.281,0 0.5,-0.219 0.5,-0.5Zm10,6.5c0,6.625 -5.375,12 -12,12c-6.625,0 -12,-5.375 -12,-12c0,-6.625 5.375,-12 12,-12c6.625,0 12,5.375 12,12Z" style="fill:#fff;fill-rule:nonzero;"/></svg>