<?xml version="1.0" encoding="UTF-8" standalone="no"?>
<!DOCTYPE svg PUBLIC "-//W3C//DTD SVG 1.1//EN" "http://www.w3.org/Graphics/SVG/1.1/DTD/svg11.dtd">
<svg width="100%" height="100%" viewBox="0 0 670 670" version="1.1" xmlns="http://www.w3.org/2000/svg" xmlns:xlink="http://www.w3.org/1999/xlink" xml:space="preserve" xmlns:serif="http://www.serif.com/" style="fill-rule:evenodd;clip-rule:evenodd;stroke-linejoin:round;stroke-miterlimit:1.41421;">
    <g transform="matrix(1,0,0,1,-1133.57,-250.501)">
        <g transform="matrix(1.37935,0,0,0.66292,862.352,239.037)">
            <g transform="matrix(0.724977,0,0,1.50848,-1733.8,1963.14)">
                <g transform="matrix(1,0,0,1,842.123,0)">
                    <circle cx="2155.2" cy="-955.361" r="334.578" style="fill:white;"/>
                </g>
                <g transform="matrix(0.659827,0,0,0.659827,2997.33,-955.361)">
                    <g transform="matrix(1,0,0,1,-256,-256)">
                        <clipPath id="_clip1">
                            <rect x="0" y="0" width="511.999" height="511.999"/>
                        </clipPath>
                        <g clip-path="url(#_clip1)">
                            <path d="M270.365,442.023C219.024,442.023 167.683,422.482 128.601,383.394C90.792,345.585 69.961,295.234 69.961,241.625C69.961,188.016 90.791,137.671 128.601,99.861C238.876,-10.425 485.247,-0.015 495.635,0.469C504.239,0.882 511.124,7.762 511.527,16.366C512.027,26.797 522.426,273.109 412.14,383.394C373.059,422.476 321.718,442.023 270.365,442.023Z" style="fill:rgb(136,204,42);fill-rule:nonzero;"/>
                            <g>
                                <path d="M270.365,442.023C321.717,442.023 373.058,422.476 412.14,383.394C522.426,273.108 512.027,26.798 511.527,16.366C511.325,12.062 509.501,8.19 506.653,5.343L128.602,383.394C167.684,422.482 219.025,442.023 270.365,442.023Z" style="fill:rgb(127,179,53);fill-rule:nonzero;"/>
                                <path d="M294.002,234.706C284.778,234.706 277.294,227.228 277.294,217.998L277.294,99.855C277.294,90.626 284.778,83.147 294.002,83.147C303.226,83.147 310.71,90.625 310.71,99.855L310.71,217.999C310.71,227.228 303.226,234.706 294.002,234.706Z" style="fill:rgb(127,179,53);fill-rule:nonzero;"/>
                            </g>
                            <path d="M412.141,234.706L294.002,234.706C284.778,234.706 277.294,227.228 277.294,217.998C277.294,208.769 284.778,201.29 294.002,201.29L412.141,201.29C421.365,201.29 428.849,208.768 428.849,217.998C428.849,227.228 421.365,234.706 412.141,234.706Z" style="fill:rgb(115,166,42);fill-rule:nonzero;"/>
                            <path d="M187.676,341.032C178.452,341.032 170.968,333.554 170.968,324.324L170.968,206.181C170.968,196.952 178.452,189.473 187.676,189.473C196.9,189.473 204.384,196.951 204.384,206.181L204.384,324.325C204.384,333.554 196.9,341.032 187.676,341.032Z" style="fill:rgb(127,179,53);fill-rule:nonzero;"/>
                            <path d="M305.816,341.032L187.676,341.032C178.452,341.032 170.968,333.554 170.968,324.324C170.968,315.095 178.452,307.616 187.676,307.616L305.814,307.616C315.038,307.616 322.522,315.094 322.522,324.324C322.522,333.554 315.039,341.032 305.816,341.032Z" style="fill:rgb(115,166,42);fill-rule:nonzero;"/>
                            <path d="M16.707,511.996C12.432,511.996 8.157,510.364 4.895,507.101C-1.631,500.581 -1.631,489.997 4.895,483.475L388.516,99.861C395.042,93.335 405.616,93.335 412.142,99.861C418.668,106.381 418.668,116.965 412.142,123.487L28.519,507.102C25.257,510.365 20.982,511.996 16.707,511.996Z" style="fill:rgb(127,179,53);fill-rule:nonzero;"/>
                            <path d="M16.707,511.996C20.982,511.996 25.257,510.364 28.519,507.101L412.141,123.486C418.667,116.966 418.667,106.382 412.141,99.86C412.141,99.859 412.139,99.859 412.139,99.859L4.894,507.102C8.157,510.365 12.432,511.996 16.707,511.996Z" style="fill:rgb(115,166,42);fill-rule:nonzero;"/>
                        </g>
                    </g>
                </g>
            </g>
        </g>
    </g>
</svg>
