<?xml version="1.0" encoding="UTF-8" standalone="no"?>
<!DOCTYPE svg PUBLIC "-//W3C//DTD SVG 1.1//EN" "http://www.w3.org/Graphics/SVG/1.1/DTD/svg11.dtd">
<svg width="100%" height="100%" viewBox="0 0 670 670" version="1.1" xmlns="http://www.w3.org/2000/svg" xmlns:xlink="http://www.w3.org/1999/xlink" xml:space="preserve" xmlns:serif="http://www.serif.com/" style="fill-rule:evenodd;clip-rule:evenodd;stroke-linejoin:round;stroke-miterlimit:1.41421;">
    <g transform="matrix(1,0,0,1,-1975.69,-250.501)">
        <g transform="matrix(1.37935,0,0,0.66292,862.352,239.037)">
            <g transform="matrix(0.724977,0,0,1.50848,-1733.8,1963.14)">
                <g transform="matrix(1,0,0,1,1684.25,0)">
                    <circle cx="2155.2" cy="-955.361" r="334.578" style="fill:white;"/>
                </g>
                <g transform="matrix(0.742855,0,0,0.742855,2750.17,-1617.45)">
                    <g transform="matrix(1,0,0,1,1451.44,853.686)">
                        <g transform="matrix(1,0,0,1,-256,-256)">
                            <clipPath id="_clip1">
                                <rect x="0" y="0" width="512" height="512"/>
                            </clipPath>
                            <g clip-path="url(#_clip1)">
                                <path d="M135.57,402.386L39.507,402.386C17.688,402.386 0,384.699 0,362.879C0,341.059 17.688,323.372 39.507,323.372L135.57,323.372C187.497,323.372 234.704,290.73 253.041,242.148C287.583,150.629 382.659,96.081 479.096,112.448C500.609,116.098 515.088,136.496 511.437,158.006C507.789,179.519 487.403,194.008 465.879,190.347C406.606,180.278 348.19,213.81 326.968,270.049C312.221,309.122 286.269,342.329 251.918,366.08C217.566,389.832 177.333,402.386 135.57,402.386Z" style="fill:rgb(255,159,155);fill-rule:nonzero;"/>
                                <g>
                                    <path d="M504.65,128.458C504.924,131.71 504.797,135.049 504.226,138.416C500.578,159.929 480.192,174.418 458.668,170.757C399.395,160.688 340.979,194.22 319.756,250.458C289.733,330.002 213.693,382.795 128.36,382.795L32.296,382.795C19.041,382.795 7.32,376.261 0.153,366.245C1.863,386.488 18.823,402.386 39.507,402.386L135.57,402.386C177.332,402.386 217.565,389.832 251.916,366.079C286.267,342.328 312.219,309.121 326.966,270.048C348.19,213.81 406.605,180.277 465.878,190.346C487.403,194.007 507.788,179.519 511.436,158.005C513.268,147.219 510.538,136.713 504.65,128.458Z" style="fill:rgb(250,116,110);fill-rule:nonzero;"/>
                                    <path d="M362.314,127.006C336.135,138.548 312.47,155.495 293.05,176.834C299,204.888 317.961,228.13 343.322,239.953C357.727,220.391 377.436,205.547 399.767,196.962C377.887,181.156 363.368,155.802 362.314,127.006Z" style="fill:rgb(228,84,84);fill-rule:nonzero;"/>
                                </g>
                                <path d="M383.14,181.435C360.792,192.174 341.686,209.422 328.818,231.451C333.358,234.71 338.207,237.567 343.322,239.952C356.284,222.35 374.153,207.783 395.587,198.655C395.601,198.649 395.616,198.643 395.63,198.637C396.999,198.055 398.378,197.496 399.767,196.962C393.592,192.501 388.004,187.28 383.14,181.435Z" style="fill:rgb(193,66,66);fill-rule:nonzero;"/>
                                <path d="M246.563,256.447C235.221,277.831 217.961,295.253 197.34,306.958C207.323,333.667 229.574,354.39 257.241,362.264C280.125,345.35 299.01,324.105 313.004,299.671C284.772,296.216 260.565,279.748 246.563,256.447Z" style="fill:rgb(228,84,84);fill-rule:nonzero;"/>
                                <path d="M295.795,295.817C279.797,318.616 259.266,337.908 235.232,352.659C242.032,356.783 249.419,360.037 257.24,362.262C257.241,362.261 257.242,362.26 257.243,362.259C260.087,360.157 262.869,357.987 265.588,355.753C265.621,355.726 265.654,355.698 265.687,355.671C280.657,343.356 293.74,329.045 304.612,313.081C304.618,313.072 304.624,313.063 304.63,313.054C307.586,308.711 310.377,304.25 312.997,299.676C312.998,299.673 313,299.671 313.001,299.668C307.07,298.944 301.316,297.636 295.795,295.817Z" style="fill:rgb(193,66,66);fill-rule:nonzero;"/>
                                <path d="M167.136,399.956C145.94,380.905 134.598,352.826 137.647,323.331C134.336,323.388 145.087,323.372 79.259,323.372C65.578,348.064 64.485,377.333 75.118,402.386C139.959,402.386 147.425,403.013 167.136,399.956Z" style="fill:rgb(228,84,84);fill-rule:nonzero;"/>
                                <path d="M151.444,381.503C136.586,383.174 132.689,382.796 69.333,382.796C70.528,389.619 72.485,396.181 75.118,402.387C140.522,402.387 147.488,403.005 167.136,399.957C161.118,394.547 155.836,388.338 151.444,381.503Z" style="fill:rgb(193,66,66);fill-rule:nonzero;"/>
                            </g>
                        </g>
                    </g>
                    <g transform="matrix(0.843952,0.139987,-0.139987,0.843952,1485.36,1008.66)">
                        <g transform="matrix(1,0,0,1,-256,-256)">
                            <clipPath id="_clip2">
                                <rect x="0" y="0" width="512" height="512"/>
                            </clipPath>
                            <g clip-path="url(#_clip2)">
                                <path d="M135.57,402.386L39.507,402.386C17.688,402.386 0,384.699 0,362.879C0,341.059 17.688,323.372 39.507,323.372L135.57,323.372C187.497,323.372 234.704,290.73 253.041,242.148C287.583,150.629 382.659,96.081 479.096,112.448C500.609,116.098 515.088,136.496 511.437,158.006C507.789,179.519 487.403,194.008 465.879,190.347C406.606,180.278 348.19,213.81 326.968,270.049C312.221,309.122 286.269,342.329 251.918,366.08C217.566,389.832 177.333,402.386 135.57,402.386Z" style="fill:rgb(255,159,155);fill-rule:nonzero;"/>
                                <g>
                                    <path d="M504.65,128.458C504.924,131.71 504.797,135.049 504.226,138.416C500.578,159.929 480.192,174.418 458.668,170.757C399.395,160.688 340.979,194.22 319.756,250.458C289.733,330.002 213.693,382.795 128.36,382.795L32.296,382.795C19.041,382.795 7.32,376.261 0.153,366.245C1.863,386.488 18.823,402.386 39.507,402.386L135.57,402.386C177.332,402.386 217.565,389.832 251.916,366.079C286.267,342.328 312.219,309.121 326.966,270.048C348.19,213.81 406.605,180.277 465.878,190.346C487.403,194.007 507.788,179.519 511.436,158.005C513.268,147.219 510.538,136.713 504.65,128.458Z" style="fill:rgb(250,116,110);fill-rule:nonzero;"/>
                                    <path d="M362.314,127.006C336.135,138.548 312.47,155.495 293.05,176.834C299,204.888 317.961,228.13 343.322,239.953C357.727,220.391 377.436,205.547 399.767,196.962C377.887,181.156 363.368,155.802 362.314,127.006Z" style="fill:rgb(228,84,84);fill-rule:nonzero;"/>
                                </g>
                                <path d="M383.14,181.435C360.792,192.174 341.686,209.422 328.818,231.451C333.358,234.71 338.207,237.567 343.322,239.952C356.284,222.35 374.153,207.783 395.587,198.655C395.601,198.649 395.616,198.643 395.63,198.637C396.999,198.055 398.378,197.496 399.767,196.962C393.592,192.501 388.004,187.28 383.14,181.435Z" style="fill:rgb(193,66,66);fill-rule:nonzero;"/>
                                <path d="M246.563,256.447C235.221,277.831 217.961,295.253 197.34,306.958C207.323,333.667 229.574,354.39 257.241,362.264C280.125,345.35 299.01,324.105 313.004,299.671C284.772,296.216 260.565,279.748 246.563,256.447Z" style="fill:rgb(228,84,84);fill-rule:nonzero;"/>
                                <path d="M295.795,295.817C279.797,318.616 259.266,337.908 235.232,352.659C242.032,356.783 249.419,360.037 257.24,362.262C257.241,362.261 257.242,362.26 257.243,362.259C260.087,360.157 262.869,357.987 265.588,355.753C265.621,355.726 265.654,355.698 265.687,355.671C280.657,343.356 293.74,329.045 304.612,313.081C304.618,313.072 304.624,313.063 304.63,313.054C307.586,308.711 310.377,304.25 312.997,299.676C312.998,299.673 313,299.671 313.001,299.668C307.07,298.944 301.316,297.636 295.795,295.817Z" style="fill:rgb(193,66,66);fill-rule:nonzero;"/>
                                <path d="M167.136,399.956C145.94,380.905 134.598,352.826 137.647,323.331C134.336,323.388 145.087,323.372 79.259,323.372C65.578,348.064 64.485,377.333 75.118,402.386C139.959,402.386 147.425,403.013 167.136,399.956Z" style="fill:rgb(228,84,84);fill-rule:nonzero;"/>
                                <path d="M151.444,381.503C136.586,383.174 132.689,382.796 69.333,382.796C70.528,389.619 72.485,396.181 75.118,402.387C140.522,402.387 147.488,403.005 167.136,399.957C161.118,394.547 155.836,388.338 151.444,381.503Z" style="fill:rgb(193,66,66);fill-rule:nonzero;"/>
                            </g>
                        </g>
                    </g>
                    <g transform="matrix(0.702279,-0.105427,0.105427,0.702279,1402.22,728.768)">
                        <g transform="matrix(1,0,0,1,-256,-256)">
                            <clipPath id="_clip3">
                                <rect x="0" y="0" width="512" height="512"/>
                            </clipPath>
                            <g clip-path="url(#_clip3)">
                                <path d="M135.57,402.386L39.507,402.386C17.688,402.386 0,384.699 0,362.879C0,341.059 17.688,323.372 39.507,323.372L135.57,323.372C187.497,323.372 234.704,290.73 253.041,242.148C287.583,150.629 382.659,96.081 479.096,112.448C500.609,116.098 515.088,136.496 511.437,158.006C507.789,179.519 487.403,194.008 465.879,190.347C406.606,180.278 348.19,213.81 326.968,270.049C312.221,309.122 286.269,342.329 251.918,366.08C217.566,389.832 177.333,402.386 135.57,402.386Z" style="fill:rgb(255,159,155);fill-rule:nonzero;"/>
                                <g>
                                    <path d="M504.65,128.458C504.924,131.71 504.797,135.049 504.226,138.416C500.578,159.929 480.192,174.418 458.668,170.757C399.395,160.688 340.979,194.22 319.756,250.458C289.733,330.002 213.693,382.795 128.36,382.795L32.296,382.795C19.041,382.795 7.32,376.261 0.153,366.245C1.863,386.488 18.823,402.386 39.507,402.386L135.57,402.386C177.332,402.386 217.565,389.832 251.916,366.079C286.267,342.328 312.219,309.121 326.966,270.048C348.19,213.81 406.605,180.277 465.878,190.346C487.403,194.007 507.788,179.519 511.436,158.005C513.268,147.219 510.538,136.713 504.65,128.458Z" style="fill:rgb(250,116,110);fill-rule:nonzero;"/>
                                    <path d="M362.314,127.006C336.135,138.548 312.47,155.495 293.05,176.834C299,204.888 317.961,228.13 343.322,239.953C357.727,220.391 377.436,205.547 399.767,196.962C377.887,181.156 363.368,155.802 362.314,127.006Z" style="fill:rgb(228,84,84);fill-rule:nonzero;"/>
                                </g>
                                <path d="M383.14,181.435C360.792,192.174 341.686,209.422 328.818,231.451C333.358,234.71 338.207,237.567 343.322,239.952C356.284,222.35 374.153,207.783 395.587,198.655C395.601,198.649 395.616,198.643 395.63,198.637C396.999,198.055 398.378,197.496 399.767,196.962C393.592,192.501 388.004,187.28 383.14,181.435Z" style="fill:rgb(193,66,66);fill-rule:nonzero;"/>
                                <path d="M246.563,256.447C235.221,277.831 217.961,295.253 197.34,306.958C207.323,333.667 229.574,354.39 257.241,362.264C280.125,345.35 299.01,324.105 313.004,299.671C284.772,296.216 260.565,279.748 246.563,256.447Z" style="fill:rgb(228,84,84);fill-rule:nonzero;"/>
                                <path d="M295.795,295.817C279.797,318.616 259.266,337.908 235.232,352.659C242.032,356.783 249.419,360.037 257.24,362.262C257.241,362.261 257.242,362.26 257.243,362.259C260.087,360.157 262.869,357.987 265.588,355.753C265.621,355.726 265.654,355.698 265.687,355.671C280.657,343.356 293.74,329.045 304.612,313.081C304.618,313.072 304.624,313.063 304.63,313.054C307.586,308.711 310.377,304.25 312.997,299.676C312.998,299.673 313,299.671 313.001,299.668C307.07,298.944 301.316,297.636 295.795,295.817Z" style="fill:rgb(193,66,66);fill-rule:nonzero;"/>
                                <path d="M167.136,399.956C145.94,380.905 134.598,352.826 137.647,323.331C134.336,323.388 145.087,323.372 79.259,323.372C65.578,348.064 64.485,377.333 75.118,402.386C139.959,402.386 147.425,403.013 167.136,399.956Z" style="fill:rgb(228,84,84);fill-rule:nonzero;"/>
                                <path d="M151.444,381.503C136.586,383.174 132.689,382.796 69.333,382.796C70.528,389.619 72.485,396.181 75.118,402.387C140.522,402.387 147.488,403.005 167.136,399.957C161.118,394.547 155.836,388.338 151.444,381.503Z" style="fill:rgb(193,66,66);fill-rule:nonzero;"/>
                            </g>
                        </g>
                    </g>
                </g>
            </g>
        </g>
    </g>
</svg>
